<?xml version="1.0" standalone="no"?>
<svg xmlns:xlink="http://www.w3.org/1999/xlink" id="wave" style="transform:rotate(0deg); transition: 0.3s" viewBox="0 0 1440 200" version="1.1" xmlns="http://www.w3.org/2000/svg"><defs><linearGradient id="sw-gradient-0" x1="0" x2="0" y1="1" y2="0"><stop stop-color="rgba(255, 0, 0, 1)" offset="0%"/><stop stop-color="rgba(171.115, 0, 0, 1)" offset="100%"/></linearGradient></defs><path style="transform:translate(0, 0px); opacity:1" fill="url(#sw-gradient-0)" d="M0,80L34.3,73.3C68.6,67,137,53,206,46.7C274.3,40,343,40,411,56.7C480,73,549,107,617,103.3C685.7,100,754,60,823,63.3C891.4,67,960,113,1029,120C1097.1,127,1166,93,1234,86.7C1302.9,80,1371,100,1440,93.3C1508.6,87,1577,53,1646,60C1714.3,67,1783,113,1851,116.7C1920,120,1989,80,2057,56.7C2125.7,33,2194,27,2263,46.7C2331.4,67,2400,113,2469,130C2537.1,147,2606,133,2674,126.7C2742.9,120,2811,120,2880,103.3C2948.6,87,3017,53,3086,46.7C3154.3,40,3223,60,3291,86.7C3360,113,3429,147,3497,156.7C3565.7,167,3634,153,3703,150C3771.4,147,3840,153,3909,146.7C3977.1,140,4046,120,4114,93.3C4182.9,67,4251,33,4320,36.7C4388.6,40,4457,80,4526,103.3C4594.3,127,4663,133,4731,130C4800,127,4869,113,4903,106.7L4937.1,100L4937.1,200L4902.9,200C4868.6,200,4800,200,4731,200C4662.9,200,4594,200,4526,200C4457.1,200,4389,200,4320,200C4251.4,200,4183,200,4114,200C4045.7,200,3977,200,3909,200C3840,200,3771,200,3703,200C3634.3,200,3566,200,3497,200C3428.6,200,3360,200,3291,200C3222.9,200,3154,200,3086,200C3017.1,200,2949,200,2880,200C2811.4,200,2743,200,2674,200C2605.7,200,2537,200,2469,200C2400,200,2331,200,2263,200C2194.3,200,2126,200,2057,200C1988.6,200,1920,200,1851,200C1782.9,200,1714,200,1646,200C1577.1,200,1509,200,1440,200C1371.4,200,1303,200,1234,200C1165.7,200,1097,200,1029,200C960,200,891,200,823,200C754.3,200,686,200,617,200C548.6,200,480,200,411,200C342.9,200,274,200,206,200C137.1,200,69,200,34,200L0,200Z"/><defs><linearGradient id="sw-gradient-1" x1="0" x2="0" y1="1" y2="0"><stop stop-color="rgba(255, 0, 0, 1)" offset="0%"/><stop stop-color="rgba(105.088, 16.646, 16.646, 1)" offset="100%"/></linearGradient></defs><path style="transform:translate(0, 50px); opacity:0.9" fill="url(#sw-gradient-1)" d="M0,80L34.3,90C68.6,100,137,120,206,106.7C274.3,93,343,47,411,26.7C480,7,549,13,617,40C685.7,67,754,113,823,116.7C891.4,120,960,80,1029,56.7C1097.1,33,1166,27,1234,26.7C1302.9,27,1371,33,1440,46.7C1508.6,60,1577,80,1646,73.3C1714.3,67,1783,33,1851,20C1920,7,1989,13,2057,40C2125.7,67,2194,113,2263,130C2331.4,147,2400,133,2469,133.3C2537.1,133,2606,147,2674,150C2742.9,153,2811,147,2880,120C2948.6,93,3017,47,3086,30C3154.3,13,3223,27,3291,30C3360,33,3429,27,3497,26.7C3565.7,27,3634,33,3703,30C3771.4,27,3840,13,3909,6.7C3977.1,0,4046,0,4114,20C4182.9,40,4251,80,4320,83.3C4388.6,87,4457,53,4526,46.7C4594.3,40,4663,60,4731,70C4800,80,4869,80,4903,80L4937.1,80L4937.1,200L4902.9,200C4868.6,200,4800,200,4731,200C4662.9,200,4594,200,4526,200C4457.1,200,4389,200,4320,200C4251.4,200,4183,200,4114,200C4045.7,200,3977,200,3909,200C3840,200,3771,200,3703,200C3634.3,200,3566,200,3497,200C3428.6,200,3360,200,3291,200C3222.9,200,3154,200,3086,200C3017.1,200,2949,200,2880,200C2811.4,200,2743,200,2674,200C2605.7,200,2537,200,2469,200C2400,200,2331,200,2263,200C2194.3,200,2126,200,2057,200C1988.6,200,1920,200,1851,200C1782.9,200,1714,200,1646,200C1577.1,200,1509,200,1440,200C1371.4,200,1303,200,1234,200C1165.7,200,1097,200,1029,200C960,200,891,200,823,200C754.3,200,686,200,617,200C548.6,200,480,200,411,200C342.9,200,274,200,206,200C137.1,200,69,200,34,200L0,200Z"/><defs><linearGradient id="sw-gradient-2" x1="0" x2="0" y1="1" y2="0"><stop stop-color="rgba(248.525, 0, 0, 1)" offset="0%"/><stop stop-color="rgba(0, 0, 0, 1)" offset="100%"/></linearGradient></defs><path style="transform:translate(0, 100px); opacity:0.8" fill="url(#sw-gradient-2)" d="M0,120L34.3,123.3C68.6,127,137,133,206,136.7C274.3,140,343,140,411,140C480,140,549,140,617,146.7C685.7,153,754,167,823,156.7C891.4,147,960,113,1029,113.3C1097.1,113,1166,147,1234,160C1302.9,173,1371,167,1440,160C1508.6,153,1577,147,1646,146.7C1714.3,147,1783,153,1851,140C1920,127,1989,93,2057,96.7C2125.7,100,2194,140,2263,140C2331.4,140,2400,100,2469,83.3C2537.1,67,2606,73,2674,83.3C2742.9,93,2811,107,2880,113.3C2948.6,120,3017,120,3086,116.7C3154.3,113,3223,107,3291,90C3360,73,3429,47,3497,36.7C3565.7,27,3634,33,3703,53.3C3771.4,73,3840,107,3909,113.3C3977.1,120,4046,100,4114,93.3C4182.9,87,4251,93,4320,103.3C4388.6,113,4457,127,4526,136.7C4594.3,147,4663,153,4731,133.3C4800,113,4869,67,4903,43.3L4937.1,20L4937.1,200L4902.9,200C4868.6,200,4800,200,4731,200C4662.9,200,4594,200,4526,200C4457.1,200,4389,200,4320,200C4251.4,200,4183,200,4114,200C4045.7,200,3977,200,3909,200C3840,200,3771,200,3703,200C3634.3,200,3566,200,3497,200C3428.6,200,3360,200,3291,200C3222.9,200,3154,200,3086,200C3017.1,200,2949,200,2880,200C2811.4,200,2743,200,2674,200C2605.7,200,2537,200,2469,200C2400,200,2331,200,2263,200C2194.3,200,2126,200,2057,200C1988.6,200,1920,200,1851,200C1782.9,200,1714,200,1646,200C1577.1,200,1509,200,1440,200C1371.4,200,1303,200,1234,200C1165.7,200,1097,200,1029,200C960,200,891,200,823,200C754.3,200,686,200,617,200C548.6,200,480,200,411,200C342.9,200,274,200,206,200C137.1,200,69,200,34,200L0,200Z"/><defs><linearGradient id="sw-gradient-3" x1="0" x2="0" y1="1" y2="0"><stop stop-color="rgba(241.695, 0, 0, 1)" offset="0%"/><stop stop-color="rgba(177.945, 24.168, 24.168, 1)" offset="100%"/></linearGradient></defs><path style="transform:translate(0, 150px); opacity:0.7" fill="url(#sw-gradient-3)" d="M0,140L34.3,116.7C68.6,93,137,47,206,40C274.3,33,343,67,411,96.7C480,127,549,153,617,166.7C685.7,180,754,180,823,163.3C891.4,147,960,113,1029,86.7C1097.1,60,1166,40,1234,30C1302.9,20,1371,20,1440,20C1508.6,20,1577,20,1646,43.3C1714.3,67,1783,113,1851,130C1920,147,1989,133,2057,110C2125.7,87,2194,53,2263,60C2331.4,67,2400,113,2469,126.7C2537.1,140,2606,120,2674,123.3C2742.9,127,2811,153,2880,140C2948.6,127,3017,73,3086,66.7C3154.3,60,3223,100,3291,96.7C3360,93,3429,47,3497,26.7C3565.7,7,3634,13,3703,20C3771.4,27,3840,33,3909,60C3977.1,87,4046,133,4114,150C4182.9,167,4251,153,4320,146.7C4388.6,140,4457,140,4526,143.3C4594.3,147,4663,153,4731,146.7C4800,140,4869,120,4903,110L4937.1,100L4937.1,200L4902.9,200C4868.6,200,4800,200,4731,200C4662.9,200,4594,200,4526,200C4457.1,200,4389,200,4320,200C4251.4,200,4183,200,4114,200C4045.7,200,3977,200,3909,200C3840,200,3771,200,3703,200C3634.3,200,3566,200,3497,200C3428.6,200,3360,200,3291,200C3222.9,200,3154,200,3086,200C3017.1,200,2949,200,2880,200C2811.4,200,2743,200,2674,200C2605.7,200,2537,200,2469,200C2400,200,2331,200,2263,200C2194.3,200,2126,200,2057,200C1988.6,200,1920,200,1851,200C1782.9,200,1714,200,1646,200C1577.1,200,1509,200,1440,200C1371.4,200,1303,200,1234,200C1165.7,200,1097,200,1029,200C960,200,891,200,823,200C754.3,200,686,200,617,200C548.6,200,480,200,411,200C342.9,200,274,200,206,200C137.1,200,69,200,34,200L0,200Z"/></svg>