<?xml version="1.0" standalone="no"?>
<svg xmlns:xlink="http://www.w3.org/1999/xlink" id="wave" style="transform:rotate(180deg); transition: 0.3s" viewBox="0 0 1440 260" version="1.1" xmlns="http://www.w3.org/2000/svg"><defs><linearGradient id="sw-gradient-0" x1="0" x2="0" y1="1" y2="0"><stop stop-color="rgba(255, 1.519, 1.519, 1)" offset="0%"/><stop stop-color="rgba(141.516, 0, 0, 1)" offset="100%"/></linearGradient></defs><path style="transform:translate(0, 0px); opacity:1" fill="url(#sw-gradient-0)" d="M0,130L60,130C120,130,240,130,360,117C480,104,600,78,720,86.7C840,95,960,139,1080,134.3C1200,130,1320,78,1440,65C1560,52,1680,78,1800,82.3C1920,87,2040,69,2160,65C2280,61,2400,69,2520,69.3C2640,69,2760,61,2880,52C3000,43,3120,35,3240,30.3C3360,26,3480,26,3600,30.3C3720,35,3840,43,3960,73.7C4080,104,4200,156,4320,160.3C4440,165,4560,121,4680,108.3C4800,95,4920,113,5040,134.3C5160,156,5280,182,5400,177.7C5520,173,5640,139,5760,117C5880,95,6000,87,6120,104C6240,121,6360,165,6480,169C6600,173,6720,139,6840,108.3C6960,78,7080,52,7200,69.3C7320,87,7440,147,7560,173.3C7680,199,7800,191,7920,160.3C8040,130,8160,78,8280,69.3C8400,61,8520,95,8580,112.7L8640,130L8640,260L8580,260C8520,260,8400,260,8280,260C8160,260,8040,260,7920,260C7800,260,7680,260,7560,260C7440,260,7320,260,7200,260C7080,260,6960,260,6840,260C6720,260,6600,260,6480,260C6360,260,6240,260,6120,260C6000,260,5880,260,5760,260C5640,260,5520,260,5400,260C5280,260,5160,260,5040,260C4920,260,4800,260,4680,260C4560,260,4440,260,4320,260C4200,260,4080,260,3960,260C3840,260,3720,260,3600,260C3480,260,3360,260,3240,260C3120,260,3000,260,2880,260C2760,260,2640,260,2520,260C2400,260,2280,260,2160,260C2040,260,1920,260,1800,260C1680,260,1560,260,1440,260C1320,260,1200,260,1080,260C960,260,840,260,720,260C600,260,480,260,360,260C240,260,120,260,60,260L0,260Z"/><defs><linearGradient id="sw-gradient-1" x1="0" x2="0" y1="1" y2="0"><stop stop-color="rgba(148.347, 25.174, 25.174, 1)" offset="0%"/><stop stop-color="rgba(239.418, 0, 0, 1)" offset="100%"/></linearGradient></defs><path style="transform:translate(0, 50px); opacity:0.9" fill="url(#sw-gradient-1)" d="M0,234L60,234C120,234,240,234,360,234C480,234,600,234,720,195C840,156,960,78,1080,78C1200,78,1320,156,1440,160.3C1560,165,1680,95,1800,82.3C1920,69,2040,113,2160,108.3C2280,104,2400,52,2520,30.3C2640,9,2760,17,2880,21.7C3000,26,3120,26,3240,21.7C3360,17,3480,9,3600,21.7C3720,35,3840,69,3960,99.7C4080,130,4200,156,4320,177.7C4440,199,4560,217,4680,195C4800,173,4920,113,5040,104C5160,95,5280,139,5400,169C5520,199,5640,217,5760,212.3C5880,208,6000,182,6120,151.7C6240,121,6360,87,6480,78C6600,69,6720,87,6840,86.7C6960,87,7080,69,7200,82.3C7320,95,7440,139,7560,138.7C7680,139,7800,95,7920,78C8040,61,8160,69,8280,99.7C8400,130,8520,182,8580,208L8640,234L8640,260L8580,260C8520,260,8400,260,8280,260C8160,260,8040,260,7920,260C7800,260,7680,260,7560,260C7440,260,7320,260,7200,260C7080,260,6960,260,6840,260C6720,260,6600,260,6480,260C6360,260,6240,260,6120,260C6000,260,5880,260,5760,260C5640,260,5520,260,5400,260C5280,260,5160,260,5040,260C4920,260,4800,260,4680,260C4560,260,4440,260,4320,260C4200,260,4080,260,3960,260C3840,260,3720,260,3600,260C3480,260,3360,260,3240,260C3120,260,3000,260,2880,260C2760,260,2640,260,2520,260C2400,260,2280,260,2160,260C2040,260,1920,260,1800,260C1680,260,1560,260,1440,260C1320,260,1200,260,1080,260C960,260,840,260,720,260C600,260,480,260,360,260C240,260,120,260,60,260L0,260Z"/><defs><linearGradient id="sw-gradient-2" x1="0" x2="0" y1="1" y2="0"><stop stop-color="rgba(0, 0, 0, 1)" offset="0%"/><stop stop-color="rgba(255, 0, 0, 1)" offset="100%"/></linearGradient></defs><path style="transform:translate(0, 100px); opacity:0.8" fill="url(#sw-gradient-2)" d="M0,0L60,21.7C120,43,240,87,360,104C480,121,600,113,720,91C840,69,960,35,1080,43.3C1200,52,1320,104,1440,125.7C1560,147,1680,139,1800,125.7C1920,113,2040,95,2160,73.7C2280,52,2400,26,2520,52C2640,78,2760,156,2880,164.7C3000,173,3120,113,3240,91C3360,69,3480,87,3600,108.3C3720,130,3840,156,3960,151.7C4080,147,4200,113,4320,112.7C4440,113,4560,147,4680,169C4800,191,4920,199,5040,173.3C5160,147,5280,87,5400,78C5520,69,5640,113,5760,108.3C5880,104,6000,52,6120,60.7C6240,69,6360,139,6480,156C6600,173,6720,139,6840,138.7C6960,139,7080,173,7200,177.7C7320,182,7440,156,7560,147.3C7680,139,7800,147,7920,125.7C8040,104,8160,52,8280,26C8400,0,8520,0,8580,0L8640,0L8640,260L8580,260C8520,260,8400,260,8280,260C8160,260,8040,260,7920,260C7800,260,7680,260,7560,260C7440,260,7320,260,7200,260C7080,260,6960,260,6840,260C6720,260,6600,260,6480,260C6360,260,6240,260,6120,260C6000,260,5880,260,5760,260C5640,260,5520,260,5400,260C5280,260,5160,260,5040,260C4920,260,4800,260,4680,260C4560,260,4440,260,4320,260C4200,260,4080,260,3960,260C3840,260,3720,260,3600,260C3480,260,3360,260,3240,260C3120,260,3000,260,2880,260C2760,260,2640,260,2520,260C2400,260,2280,260,2160,260C2040,260,1920,260,1800,260C1680,260,1560,260,1440,260C1320,260,1200,260,1080,260C960,260,840,260,720,260C600,260,480,260,360,260C240,260,120,260,60,260L0,260Z"/><defs><linearGradient id="sw-gradient-3" x1="0" x2="0" y1="1" y2="0"><stop stop-color="rgba(0, 0, 0, 1)" offset="0%"/><stop stop-color="rgba(255, 0, 0, 1)" offset="100%"/></linearGradient></defs><path style="transform:translate(0, 150px); opacity:0.7" fill="url(#sw-gradient-3)" d="M0,0L60,4.3C120,9,240,17,360,30.3C480,43,600,61,720,69.3C840,78,960,78,1080,69.3C1200,61,1320,43,1440,47.7C1560,52,1680,78,1800,91C1920,104,2040,104,2160,91C2280,78,2400,52,2520,39C2640,26,2760,26,2880,26C3000,26,3120,26,3240,26C3360,26,3480,26,3600,60.7C3720,95,3840,165,3960,186.3C4080,208,4200,182,4320,160.3C4440,139,4560,121,4680,104C4800,87,4920,69,5040,60.7C5160,52,5280,52,5400,78C5520,104,5640,156,5760,182C5880,208,6000,208,6120,177.7C6240,147,6360,87,6480,86.7C6600,87,6720,147,6840,160.3C6960,173,7080,139,7200,130C7320,121,7440,139,7560,143C7680,147,7800,139,7920,112.7C8040,87,8160,43,8280,30.3C8400,17,8520,35,8580,43.3L8640,52L8640,260L8580,260C8520,260,8400,260,8280,260C8160,260,8040,260,7920,260C7800,260,7680,260,7560,260C7440,260,7320,260,7200,260C7080,260,6960,260,6840,260C6720,260,6600,260,6480,260C6360,260,6240,260,6120,260C6000,260,5880,260,5760,260C5640,260,5520,260,5400,260C5280,260,5160,260,5040,260C4920,260,4800,260,4680,260C4560,260,4440,260,4320,260C4200,260,4080,260,3960,260C3840,260,3720,260,3600,260C3480,260,3360,260,3240,260C3120,260,3000,260,2880,260C2760,260,2640,260,2520,260C2400,260,2280,260,2160,260C2040,260,1920,260,1800,260C1680,260,1560,260,1440,260C1320,260,1200,260,1080,260C960,260,840,260,720,260C600,260,480,260,360,260C240,260,120,260,60,260L0,260Z"/></svg>